<svg xmlns="http://www.w3.org/2000/svg" viewBox="0 0 37.96 43.06"><defs><style>.cls-1{fill:#323333;}</style></defs><title>CSS3Asset 3</title><g id="Layer_2" data-name="Layer 2"><g id="Layer_1-2" data-name="Layer 1"><path class="cls-1" d="M0,0V.3c0,.39.09.77.13,1.15C.25,2.73.36,4,.48,5.3.57,6.36.66,7.43.76,8.49l.3,3.19c.09,1.07.18,2.14.28,3.21s.19,2.14.29,3.21.19,2.13.28,3.19l.3,3.17.24,2.69.24,2.75c.09.91.16,1.81.25,2.71l.24,2.73.24,2.71c0,.18,0,.35.05.53s.14.22.28.26l2.82.79L18.65,43a1.31,1.31,0,0,0,.68,0l14.28-4,.72-.2a.3.3,0,0,0,.25-.31c.14-1.71.29-3.41.44-5.12s.31-3.45.46-5.18c.14-1.55.27-3.1.41-4.65s.28-3.12.42-4.68c.1-1.22.2-2.45.31-3.67.13-1.4.26-2.8.38-4.2.11-1.22.21-2.45.32-3.67s.22-2.43.33-3.65S37.86,1.22,38,0ZM30.69,8.81c-.06.78-.12,1.54-.2,2.29a1.19,1.19,0,0,1-.58.78L19.32,18,17,19.27l-.3.17H29.84l-1.1,13.73-1.25.29-2.63.6-1.44.33c-1.33.31-2.71.63-4.07.88a2.6,2.6,0,0,1-.4,0,5.09,5.09,0,0,1-1.16-.18l-.3-.07-3.94-.89L10,33.37a1,1,0,0,1-.88-1C9.06,31,9,29.63,8.84,28.24l-.15-1.93h3.72l.2,2.24,0,.21a3,3,0,0,1,0,.61c0,.34,0,.38.41.47,2,.41,3.78.82,5.5,1.24A2.79,2.79,0,0,0,20,30.94l.51-.12c1.58-.34,3.19-.72,4.75-1.09l0,0c.15-1.8.3-3.59.44-5.43l.05-.64H8.47L8.4,22.48q-.08-1.23-.12-2.43c0-.4.46-.69.51-.72l8.13-4.67,5.13-2.94H7.52l-.34-4.1h23.6Z"/></g></g></svg>