<svg xmlns="http://www.w3.org/2000/svg" viewBox="0 0 50 48.82"><defs><style>.cls-1{fill:#1b34f9;}</style></defs><title>Asset 5</title><g id="Layer_2" data-name="Layer 2"><g id="Layer_1-2" data-name="Layer 1"><path class="cls-1" d="M20.53,36A4.74,4.74,0,0,0,18.94,39a.55.55,0,0,1-.28.35,6.38,6.38,0,0,1-3.6.55,4.78,4.78,0,0,1-3.41-2.46A5.16,5.16,0,0,0,8.57,35,4.51,4.51,0,0,0,7,34.91c-.46.05-.54.39-.22.74a2.58,2.58,0,0,0,.53.46,7.34,7.34,0,0,1,3,3.63c1.08,2.65,3.16,3.76,5.88,3.84a25.57,25.57,0,0,0,2.73-.19c0,1.49,0,3,0,4.5a.89.89,0,0,1-.85.91,2.45,2.45,0,0,1-1.11-.1C7.85,45.27,2.16,38.88.4,29.32A25,25,0,0,1,48,15a24.25,24.25,0,0,1,1.92,11.84A24.92,24.92,0,0,1,33.08,48.61c-1.1.37-1.8-.12-1.8-1.27,0-2.05,0-4.1,0-6.15A7.25,7.25,0,0,0,29.62,36,23.08,23.08,0,0,0,32,35.53a25.06,25.06,0,0,0,3.42-1.17A8.43,8.43,0,0,0,39.9,29.6a14.37,14.37,0,0,0,.53-9.42,7.21,7.21,0,0,0-1.69-2.95.63.63,0,0,1-.13-.76,8.87,8.87,0,0,0-.26-6,.71.71,0,0,0-.55-.28,8.57,8.57,0,0,0-3.92,1.14c-.71.35-1.38.8-2.09,1.17a1.31,1.31,0,0,1-.8.12,25.13,25.13,0,0,0-11.79,0,1.33,1.33,0,0,1-.89-.16,14.38,14.38,0,0,0-5-2.2C12,10,11.88,10,11.53,11.3a8.8,8.8,0,0,0,.06,5.35.63.63,0,0,1-.11.51,10.42,10.42,0,0,0-2.24,7.62,15.18,15.18,0,0,0,1,4.71,9.85,9.85,0,0,0,7,5.81c.94.26,1.92.39,2.88.58Z"/></g></g></svg>