<?xml version="1.0" encoding="utf-8"?>
<!-- Generator: Adobe Illustrator 22.1.0, SVG Export Plug-In . SVG Version: 6.00 Build 0)  -->
<svg version="1.1" id="Layer_1" xmlns="http://www.w3.org/2000/svg" xmlns:xlink="http://www.w3.org/1999/xlink" x="0px" y="0px"
	 viewBox="0 0 450 450" style="enable-background:new 0 0 450 450;" xml:space="preserve">
<style type="text/css">
	.st0{fill:#F8FEFF;}
	.st1{fill:#A2B5BC;}
	.st2{fill:#D4ECE8;}
	.st3{stroke:#000000;stroke-width:0.3;stroke-miterlimit:10;}
</style>
<g>
	<path class="st0" d="M207.2,213.8c0.3-1.2,1.2-1.9,2.3-2.3c1.4-0.5,2.8,0.1,3.9,0.9c1.1,0.9,2,2,2.9,3.1c0.3,0.3,0.5,0.7,0.8,1
		c0.5-1.7,3.1-1.7,4.5-1.4c1-1.6,3-1.6,4.9-0.9c0-0.1,0-0.1,0.1-0.2c0.2-0.1,0.4-0.2,0.6-0.2c1.4-0.5,2.7-0.7,4.2-0.2
		c1.7,0.5,3.2,1.8,4.4,3.1c1.2,1.3,2,2.9,2.6,4.6c0.3,0.8,0.6,1.7,0.7,2.6c0.1,0.6,0,1.1-0.1,1.6c0.2,0,0.5,0,0.7,0.1
		c0.9,0.1,1.8,0.5,2.4,1.2c0.6,0.7,0.9,1.6,1,2.5c0,0.9-0.1,1.8-0.4,2.6c-0.6,1.6-1.6,3-2.9,4.2c-1.3,1.2-2.7,2.1-4.4,2.6
		c-0.8,0.2-1.7,0.3-2.6,0.2c-0.4-0.1-0.9-0.2-1.3-0.4c-0.4-0.2-0.8-0.5-1.1-0.8l0,0c-0.3-0.3-0.6-0.8-0.7-1.2
		c-0.1-0.3-0.2-0.7-0.2-1c-0.8,0.4-1.7,0.6-2.6,0.7c-1.1,0.2-2.3,0.3-3.5,0.2c-2.2-0.1-4.4-0.8-6.2-2c-1.7-1.1-3.2-2.9-3.6-4.9
		c-0.4-1.8,0.4-3.4,1.7-4.5c-1.4-1.2-2.8-2.4-4.2-3.6C208.8,219.3,206.3,216.9,207.2,213.8z"/>
	<path class="st1" d="M237.5,229.2c-1.1,0.4-2.2,1.1-3.1,1.8c-0.8,0.7-1.5,1.6-1.8,2.6c0,0.1-0.1,0.3-0.1,0.4c0,0,0,0,0,0
		c1,2.6,4,0.5,5.4-0.7c0.6-0.6,1.2-1.2,1.6-2c0.3-0.9,0.3-2.1-0.6-2.4C238.3,229,237.8,229.1,237.5,229.2z"/>
	<path class="st2" d="M241.5,227.2c0.3,0.3,0.4,0.6,0.6,0.9c0.1,0.4,0.2,0.7,0.2,1.1c0,0.8-0.1,1.6-0.4,2.3
		c-0.6,1.5-1.6,2.8-2.7,3.9c-1.2,1.1-2.6,1.9-4.1,2.3c-0.8,0.2-1.6,0.3-2.3,0.2c-0.7-0.1-1.4-0.4-1.9-1c-0.5-0.5-0.7-1.2-0.8-2
		c0-0.8,0.1-1.5,0.4-2.3c0.5-1.5,1.5-2.8,2.7-3.9c1.2-1.1,2.6-2,4.1-2.4c0.8-0.2,1.6-0.3,2.3-0.2C240.3,226.3,241,226.6,241.5,227.2
		z M240.6,230.2c0.7-1.6-1.1-2-2.3-1.9c-1.5,0.2-2.9,1-4.1,1.9c-1.1,0.9-2.1,2.1-2.4,3.5c-0.2,1.1,0.5,2.2,1.5,2.5
		c0.2,0,0.3-0.2,0.2-0.3c-0.1-0.1-0.2-0.2-0.3-0.2c0.4,0.1,0.8,0.2,1.2,0.1c1.5-0.2,2.9-1.2,3.9-2.3c0.9-0.9,1.6-1.9,1.6-3.3
		c0-0.6-0.2-1.1-0.5-1.4c0.6,0.1,1.1,0.4,1,1.2C240.4,230.3,240.6,230.4,240.6,230.2z"/>
	<path class="st2" d="M227.3,214.3c-0.1,0-0.2,0-0.2,0.1c1.4,0.6,2.7,1.6,3.4,2.4c0.1,0.1-0.1,0.3-0.2,0.2c-1.1-1.1-2.6-1.7-4-2.1
		c-1.4-0.4-3-0.6-4.1,0.4c1.7,0.5,3.5,1.6,4.6,3c0.1,0.1-0.1,0.2-0.2,0.1c-1.2-1.2-2.8-2-4.4-2.5c-0.8-0.2-1.7-0.4-2.6-0.3
		c-1.1,0.1-1.5,0.7-2.2,1.4c0,0,0,0,0,0c0.2,0.2,0.4,0.5,0.6,0.7c0.8,0.8,1.7,1.4,2.4,2.2c0.1,0.1,0,0.2-0.1,0.1
		c-2.7-1.3-4.2-3.7-6.2-5.8c-0.9-1-2.1-2-3.5-2.1c-1.6-0.1-2.8,1.3-2.8,2.8c-0.2,3,3.1,5.4,5.1,7.2c2.6,2.3,5.4,4.5,7.3,7.5
		c0.1,0.2-0.2,0.5-0.4,0.3c-0.4-0.5-0.8-0.9-1.2-1.3c0,0.5,0.2,0.9,0.3,1.4c0,0.1-0.1,0.2-0.2,0c-0.2-0.6-0.6-1.2-0.5-1.8
		c0,0,0,0,0,0c-0.9-0.9-1.9-1.8-2.8-2.6c-1.3,1.4-1.8,3-0.9,4.9c0.8,1.7,2.4,3,4,3.9c3.2,1.6,7.2,1.4,10.6,0.5
		c0-0.8,0.2-1.5,0.5-2.2c0.6-1.6,1.7-3,3-4.2c1.3-1.1,2.8-2.1,4.4-2.5c0.4-0.1,0.8-0.2,1.2-0.2c0-0.3,0.1-0.5,0.1-0.8
		c0-0.8-0.4-1.7-0.6-2.5c-0.5-1.7-1.2-3.3-2.3-4.7c-1-1.2-2.3-2.3-3.7-3c-0.8-0.4-1.7-0.6-2.6-0.6
		C228.5,214,227.9,214.2,227.3,214.3z"/>
	<path class="st3" d="M238.3,224.6c0-0.8-0.4-1.7-0.6-2.5c-0.5-1.7-1.2-3.3-2.3-4.7c-1-1.2-2.3-2.3-3.7-3c-0.8-0.4-1.7-0.6-2.6-0.6
		c-0.6,0-1.2,0.2-1.8,0.4l-0.1-0.6c1.4-0.5,2.7-0.7,4.2-0.2c1.7,0.5,3.2,1.8,4.4,3.1c1.2,1.3,2,2.9,2.6,4.6c0.3,0.8,0.6,1.7,0.7,2.6
		c0.1,0.6,0,1.1-0.1,1.6c0.2,0,0.5,0,0.7,0.1c0.9,0.1,1.8,0.5,2.4,1.2c0.6,0.7,0.9,1.6,1,2.5c0,0.9-0.1,1.8-0.4,2.6
		c-0.6,1.6-1.6,3-2.9,4.2c-1.3,1.2-2.7,2.1-4.4,2.6c-0.8,0.2-1.7,0.3-2.6,0.2c-0.4-0.1-0.9-0.2-1.3-0.4c-0.4-0.2-0.8-0.5-1.1-0.8
		l0,0c-0.3-0.3-0.6-0.8-0.7-1.2c-0.1-0.3-0.2-0.7-0.2-1c-0.8,0.4-1.7,0.6-2.6,0.7c-1.1,0.2-2.3,0.3-3.5,0.2c-2.2-0.1-4.4-0.8-6.2-2
		c-1.7-1.1-3.2-2.9-3.6-4.9c-0.4-1.8,0.4-3.4,1.7-4.5l0.5,0.4c-1.3,1.4-1.8,3-0.9,4.9c0.8,1.7,2.4,3,4,3.9c3.2,1.6,7.2,1.4,10.6,0.5
		c0-0.8,0.2-1.5,0.5-2.2c0.6-1.6,1.7-3,3-4.2c1.3-1.1,2.8-2.1,4.4-2.5c0.4-0.1,0.8-0.2,1.2-0.2C238.2,225.2,238.3,224.9,238.3,224.6
		z M242.3,229.2c0-0.4-0.1-0.8-0.2-1.1c-0.1-0.4-0.3-0.7-0.6-0.9c-0.5-0.5-1.2-0.9-2-1c-0.8-0.1-1.6,0-2.3,0.2
		c-1.5,0.4-2.9,1.3-4.1,2.4c-1.2,1.1-2.1,2.4-2.7,3.9c-0.3,0.7-0.4,1.5-0.4,2.3c0,0.7,0.3,1.5,0.8,2c0.5,0.5,1.2,0.9,1.9,1
		c0.7,0.1,1.5,0,2.3-0.2c1.5-0.4,2.9-1.3,4.1-2.3c1.2-1.1,2.2-2.4,2.7-3.9C242.2,230.8,242.3,230,242.3,229.2z"/>
	<path class="st3" d="M230.3,216.9c0.1,0.1,0.3,0,0.2-0.2c-0.7-0.8-2-1.8-3.4-2.4c0.1,0,0.2,0,0.2-0.1l-0.1-0.6
		c-0.2,0.1-0.4,0.1-0.6,0.2c-0.1,0-0.1,0.1-0.1,0.2c-1.9-0.7-3.9-0.7-4.9,0.9c-1.4-0.3-4-0.3-4.5,1.4c-0.3-0.3-0.5-0.7-0.8-1
		c-0.9-1.1-1.7-2.3-2.9-3.1c-1.1-0.8-2.5-1.4-3.9-0.9c-1.1,0.4-2,1.2-2.3,2.3c-0.8,3.1,1.6,5.6,3.7,7.5c1.3,1.3,2.8,2.4,4.2,3.6
		l0.5,0.4c1,0.9,1.9,1.7,2.8,2.6c0,0,0,0,0,0c-0.1,0.7,0.3,1.2,0.5,1.8c0,0.1,0.2,0.1,0.2,0c-0.1-0.5-0.3-0.9-0.3-1.4
		c0.4,0.4,0.8,0.9,1.2,1.3c0.2,0.2,0.5-0.1,0.4-0.3c-1.9-3-4.7-5.1-7.3-7.5c-2-1.8-5.2-4.2-5.1-7.2c0.1-1.5,1.2-2.9,2.8-2.8
		c1.4,0.1,2.6,1.1,3.5,2.1c2,2.1,3.5,4.4,6.2,5.8c0.1,0,0.2-0.1,0.1-0.1c-0.7-0.8-1.6-1.4-2.4-2.2c-0.2-0.2-0.4-0.4-0.6-0.7
		c0,0,0,0,0,0c0.7-0.7,1.1-1.3,2.2-1.4c0.9-0.1,1.7,0.1,2.6,0.3c1.6,0.5,3.2,1.2,4.4,2.5c0.1,0.1,0.2,0,0.2-0.1
		c-1.1-1.4-2.8-2.5-4.6-3c1.1-1,2.7-0.8,4.1-0.4C227.7,215.2,229.2,215.8,230.3,216.9z"/>
	<path class="st3" d="M234.6,235.9c-0.4,0.1-0.8,0-1.2-0.1c0.1,0.1,0.2,0.2,0.3,0.2c0.1,0.1,0,0.3-0.2,0.3c-1.1-0.3-1.7-1.4-1.5-2.5
		c0.3-1.4,1.3-2.6,2.4-3.5c1.1-1,2.6-1.8,4.1-1.9c1.2-0.1,3,0.3,2.3,1.9c0,0.1-0.2,0-0.2-0.1c0.1-0.8-0.3-1.1-1-1.2
		c0.3,0.3,0.5,0.8,0.5,1.4c0.1,1.3-0.7,2.4-1.6,3.3C237.4,234.6,236,235.7,234.6,235.9z M238.8,228.9c-0.5,0-1,0.2-1.4,0.3
		c-1.1,0.4-2.2,1.1-3.1,1.8c-0.8,0.7-1.5,1.6-1.8,2.6c0,0.1-0.1,0.3-0.1,0.4c0,0,0,0,0,0c1,2.6,4,0.5,5.4-0.7c0.6-0.6,1.2-1.2,1.6-2
		C239.8,230.4,239.8,229.2,238.8,228.9z"/>
</g>
</svg>
