<svg xmlns="http://www.w3.org/2000/svg" viewBox="0 0 50 49.99"><defs><style>.cls-1{fill:#323333;fill-rule:evenodd;}</style></defs><title>Asset 10</title><g id="Layer_2" data-name="Layer 2"><g id="Layer_1-2" data-name="Layer 1"><g id="plain"><path class="cls-1" d="M17.64,27h6.1c-1-3.57-2.09-6.87-3.11-10.23C19.65,20.12,18.65,23.41,17.64,27Z"/><path class="cls-1" d="M48.85,0H.75C-.12,0,0,.19,0,1V49.19c0,.84-.13.8.68.8H48.92c.8,0,1.08,0,1.08-.8V1.09C50,.19,49.72,0,48.85,0ZM29.28,37.69c-.65,0-1.3,0-2,0-.46,0-.62-.16-.74-.57-.6-2-1.24-3.91-1.84-5.87a.64.64,0,0,0-.73-.53c-2.19,0-4.38,0-6.57,0a.69.69,0,0,0-.81.57c-.55,2-1.16,3.88-1.73,5.82a.65.65,0,0,1-.75.56c-1.32,0-2.64,0-4.08,0l1.08-3.44Q14.45,24,17.72,13.74a.73.73,0,0,1,.85-.61c1.54,0,3.08,0,4.62,0,.29,0,.49,0,.6.34l7.75,24s0,.22,0,.22Zm8.21,0H32.73V19.84h4.76ZM35,17.43A2.37,2.37,0,0,1,32.47,15,2.41,2.41,0,0,1,35,12.58a2.43,2.43,0,1,1,0,4.85Z"/></g></g></g></svg>