<svg xmlns="http://www.w3.org/2000/svg" viewBox="0 0 50 49.99"><defs><style>.cls-1{fill:#323333;fill-rule:evenodd;}</style></defs><title>Asset 11</title><g id="Layer_2" data-name="Layer 2"><g id="Layer_1-2" data-name="Layer 1"><path class="cls-1" d="M48.85,0H.75C-.12,0,0,.19,0,1V49.19c0,.84-.13.8.68.8H48.92c.8,0,1.08,0,1.08-.8V1.09C50,.19,49.72,0,48.85,0ZM17.72,24.81V37a.86.86,0,0,1,0,.16.18.18,0,0,1-.2.18H13.91c-.13,0-.22-.06-.22-.2s0-.48,0-.73,0-.49,0-.74V33.82c0-.16,0-.32,0-.48V30.66c0-.46,0-.92,0-1.38s0-.84,0-1.26V12.72c0-.32.09-.37.37-.37h3.39c.25,0,.3.05.3.3ZM36.33,36.29c-.34.15-.68.32-1,.44-.57.2-1.15.38-1.73.53s-1,.19-1.53.27a10.11,10.11,0,0,1-2.13.1,9.3,9.3,0,0,1-3.42-.75,8,8,0,0,1-1.66-1,7.35,7.35,0,0,1-1.3-1.37,8,8,0,0,1-1.17-2.32A17.94,17.94,0,0,1,22,30.43,13.65,13.65,0,0,1,21.81,29a10.14,10.14,0,0,1,0-1.35A10.8,10.8,0,0,1,22.23,25a9.72,9.72,0,0,1,1.23-2.63,8.37,8.37,0,0,1,3.4-2.92,8.75,8.75,0,0,1,2.55-.77c.38-.05.76-.09,1.13-.11s.7,0,1.05,0a5.12,5.12,0,0,1,.56,0c.12,0,.15,0,.15-.15V12.6c0-.19.07-.25.26-.25h3.6c.2,0,.23,0,.23.24,0,1.28,0,2.56,0,3.85v6.93h0c0,3.55,0,7.1,0,10.66,0,.47,0,.95.05,1.42,0,.19,0,.38.06.57A.24.24,0,0,1,36.33,36.29Z"/><path class="cls-1" d="M32.3,22.41c0-.12,0-.2-.15-.22a6.63,6.63,0,0,0-.89-.16,10.61,10.61,0,0,0-1.12,0,4.09,4.09,0,0,0-1.28.37,4.48,4.48,0,0,0-1.59,1.24A5.37,5.37,0,0,0,26.5,25,6.24,6.24,0,0,0,26,26.74c0,.43-.09.85-.09,1.28a10.27,10.27,0,0,0,.15,1.83,6.53,6.53,0,0,0,.51,1.68,4.3,4.3,0,0,0,1.14,1.53,3.94,3.94,0,0,0,.92.57,4.47,4.47,0,0,0,1.53.38,5.22,5.22,0,0,0,1.93-.17.22.22,0,0,0,.18-.25V22.41Z"/></g></g></svg>