<svg xmlns="http://www.w3.org/2000/svg" viewBox="0 0 48 47.96"><defs><style>.cls-1{fill:#1b34f9;}</style></defs><title>Asset 7</title><g id="Layer_2" data-name="Layer 2"><g id="Layer_1-2" data-name="Layer 1"><path class="cls-1" d="M24,0c2.66,0,5.31,0,8,0a23.42,23.42,0,0,1,6.55.79,12.33,12.33,0,0,1,8.94,9.82A31,31,0,0,1,48,17.08q0,6.9,0,13.78a34.53,34.53,0,0,1-.49,6.42A12.45,12.45,0,0,1,37.34,47.43a23.14,23.14,0,0,1-4.07.44c-3.7.08-7.4.08-11.1.09-2.52,0-5,0-7.55-.08A17.57,17.57,0,0,1,8,46.62,12.17,12.17,0,0,1,.77,38.3a19.29,19.29,0,0,1-.66-4.95C.06,28.52,0,23.7,0,18.87,0,16.92.06,15,.2,13A14.38,14.38,0,0,1,2.47,5.85,12.57,12.57,0,0,1,10.58.52,27.81,27.81,0,0,1,16,0C18.7,0,21.36,0,24,0ZM4.25,24h0c0,.82,0,1.64,0,2.45a81.66,81.66,0,0,0,.3,9.12A9.29,9.29,0,0,0,6,39.7a8.5,8.5,0,0,0,6.52,3.7,38.91,38.91,0,0,0,4.31.24c5.21,0,10.41,0,15.62,0a21.63,21.63,0,0,0,3.85-.36,8,8,0,0,0,6.76-6.09,17.73,17.73,0,0,0,.55-4.75q0-8.43,0-16.85a25.48,25.48,0,0,0-.36-3.9,8.2,8.2,0,0,0-6.87-7,25.47,25.47,0,0,0-4.7-.37c-5.52,0-11,0-16.56,0a19.86,19.86,0,0,0-3.92.43,7.92,7.92,0,0,0-6.11,5.32,16.46,16.46,0,0,0-.75,5.26C4.31,18.24,4.29,21.1,4.25,24Z"/><path class="cls-1" d="M11.68,24A12.33,12.33,0,1,1,23.94,36.31,12.31,12.31,0,0,1,11.68,24ZM32,24A8,8,0,1,0,24,32,8,8,0,0,0,32,24Z"/><path class="cls-1" d="M36.81,14.05a2.88,2.88,0,1,1,2.88-2.89A2.9,2.9,0,0,1,36.81,14.05Z"/></g></g></svg>