<svg xmlns="http://www.w3.org/2000/svg" viewBox="0 0 37.96 37.96"><defs><style>.cls-1{fill:#323333;}</style></defs><title>CSS3Asset 4</title><g id="Layer_2" data-name="Layer 2"><g id="Layer_1-2" data-name="Layer 1"><path class="cls-1" d="M0,38V0H38V38Zm22.55-6.64a6.24,6.24,0,0,0,2.87,2.85,8.32,8.32,0,0,0,5.62.56,5.2,5.2,0,0,0,2.64-1.43,4.3,4.3,0,0,0,1.22-2.63,5.59,5.59,0,0,0-.36-2.86,5.07,5.07,0,0,0-2-2.19,18.89,18.89,0,0,0-3.12-1.55,7.56,7.56,0,0,1-1.73-.92,1.56,1.56,0,0,1-.55-1.62,1.39,1.39,0,0,1,1.06-1.11,2.27,2.27,0,0,1,2.42.76c.17.21.31.44.48.67l2.77-1.77a5.21,5.21,0,0,0-2.38-2.33A6.54,6.54,0,0,0,27,17.5a4.44,4.44,0,0,0-2.84,2.29,4.89,4.89,0,0,0-.49,2.58,4.79,4.79,0,0,0,.95,2.68,6.33,6.33,0,0,0,2.26,1.75c.89.44,1.82.82,2.72,1.24a6.77,6.77,0,0,1,1.16.68,1.58,1.58,0,0,1,.6,1.75,1.73,1.73,0,0,1-1.11,1.11,3.73,3.73,0,0,1-4-.92c-.29-.32-.54-.66-.81-1ZM10,31.69a.28.28,0,0,0,0,.11,5.35,5.35,0,0,0,2.58,2.6,6.69,6.69,0,0,0,4.56.33,4.28,4.28,0,0,0,3.13-2.84,7.46,7.46,0,0,0,.35-2.52V17.44H17.06V29.3a7,7,0,0,1-.07,1,1.46,1.46,0,0,1-.74,1.21,2.2,2.2,0,0,1-2.23-.1,2.71,2.71,0,0,1-.78-.87c-.13-.2-.25-.4-.38-.62Z"/></g></g></svg>