<svg xmlns="http://www.w3.org/2000/svg" viewBox="0 0 48 48"><defs><style>.cls-1{fill:#323333;}</style></defs><title>Asset 2</title><g id="Layer_2" data-name="Layer 2"><g id="Layer_1-2" data-name="Layer 1"><path class="cls-1" d="M0,24V9A8.79,8.79,0,0,1,2.06,3.27,8.77,8.77,0,0,1,7.35.16,8.8,8.8,0,0,1,9,0H39a8.68,8.68,0,0,1,6.39,2.7,8.65,8.65,0,0,1,2.41,4.6A9,9,0,0,1,48,8.94Q48,24,48,39.09a8.69,8.69,0,0,1-2.15,5.75A8.88,8.88,0,0,1,41,47.77,8.47,8.47,0,0,1,39,48H9a8.85,8.85,0,0,1-5.88-2.2,8.79,8.79,0,0,1-3-5.24A9,9,0,0,1,0,39Q0,31.5,0,24ZM18.35,40.72h7.57V27.86a6,6,0,0,1,0-.74,3.82,3.82,0,0,1,.63-1.66,3.66,3.66,0,0,1,1.8-1.54,4,4,0,0,1,2.14-.17,2.62,2.62,0,0,1,1.7,1,3.85,3.85,0,0,1,.68,1.48,9.08,9.08,0,0,1,.25,2.21v12.3h7.51v-.22c0-4.19,0-8.38,0-12.56,0-.68,0-1.36-.11-2a10.68,10.68,0,0,0-.82-3.28A7.48,7.48,0,0,0,37,19.25,8,8,0,0,0,33.26,18a9.28,9.28,0,0,0-2.63.12,6.58,6.58,0,0,0-2.88,1.31,8.6,8.6,0,0,0-1.69,1.92,1.63,1.63,0,0,0-.11.17h-.06V18.43H18.35Zm-11-22.29V40.72h7.44V18.43Zm3.55-2.9c.41-.06.82-.09,1.22-.18a3.61,3.61,0,0,0,2.56-2.07,3.76,3.76,0,0,0,.08-2.89,3.38,3.38,0,0,0-1.89-2A4.73,4.73,0,0,0,9.4,8.22,3.52,3.52,0,0,0,7.28,10a3.81,3.81,0,0,0-.34,2.44,3.55,3.55,0,0,0,1.51,2.36A4.59,4.59,0,0,0,10.92,15.53Z"/></g></g></svg>