<?xml version="1.0" encoding="utf-8"?>
<!-- Generator: Adobe Illustrator 22.1.0, SVG Export Plug-In . SVG Version: 6.00 Build 0)  -->
<svg version="1.1" id="Layer_1" xmlns="http://www.w3.org/2000/svg" xmlns:xlink="http://www.w3.org/1999/xlink" x="0px" y="0px"
	 viewBox="0 0 450 450" style="enable-background:new 0 0 450 450;" xml:space="preserve">
<style type="text/css">
	.st0{fill:#D4ECE8;}
</style>
<g>
	<path d="M210,210.5c0-0.1,0.1-0.3,0.2-0.4c0.1-0.1,0.3-0.2,0.5-0.1l10.6,2.5c0.1,0,0.2,0.1,0.3,0.1l17.7,17.7c1,1,1,2.8,0,3.8
		l-5.1,5.1c-0.5,0.5-1.2,0.8-1.9,0.8s-1.4-0.3-1.9-0.8l-17.7-17.7c-0.1-0.1-0.1-0.2-0.1-0.3l-2.5-10.6
		C210,210.6,210,210.6,210,210.5z"/>
	<path class="st0" d="M220.9,213.5l-9.6-2.2l2.3,9.6l17.6,17.6c0.3,0.3,0.7,0.5,1.1,0.5s0.8-0.2,1.1-0.5l5.1-5.1
		c0.6-0.6,0.6-1.7,0-2.3L220.9,213.5z"/>
	<path d="M213,221.1L213,221.1L213,221.1z"/>
	<g>
		<path d="M227.8,236.4c0-0.1,0.1-0.3,0.2-0.4l8.1-8.1c0.2-0.2,0.5-0.2,0.8,0c0.2,0.2,0.2,0.5,0,0.8l-8.1,8.1
			c-0.2,0.2-0.5,0.2-0.8,0C227.9,236.7,227.8,236.6,227.8,236.4z"/>
	</g>
	<g>
		<path d="M211.3,216.1c0-0.1,0.1-0.3,0.2-0.4l4.3-4.3c0.2-0.2,0.5-0.2,0.8,0c0.2,0.2,0.2,0.5,0,0.8l-4.3,4.3
			c-0.2,0.2-0.5,0.2-0.8,0C211.4,216.4,211.3,216.3,211.3,216.1z"/>
	</g>
	<g>
		<path d="M212.5,221.1c0-0.2,0.2-0.5,0.4-0.5l3.5-0.7l0.2-2.9c0-0.3,0.2-0.5,0.5-0.5l2.7,0l0.8-3.6c0.1-0.3,0.4-0.5,0.6-0.4
			c0.3,0.1,0.5,0.4,0.4,0.6l-0.9,4c-0.1,0.2-0.3,0.4-0.5,0.4l-2.6,0l-0.1,2.8c0,0.2-0.2,0.4-0.4,0.5l-3.9,0.8
			c-0.3,0.1-0.6-0.1-0.6-0.4C212.5,221.2,212.5,221.2,212.5,221.1z"/>
	</g>
	<g>
		<path d="M219.7,217c0-0.1,0.1-0.3,0.2-0.4c0.2-0.2,0.5-0.2,0.8,0l13.8,13.8c0.2,0.2,0.2,0.5,0,0.8c-0.2,0.2-0.5,0.2-0.8,0
			l-13.8-13.8C219.7,217.3,219.7,217.2,219.7,217z"/>
	</g>
	<g>
		<path d="M216.4,220.3c0-0.1,0.1-0.3,0.2-0.4c0.2-0.2,0.5-0.2,0.8,0l13.8,13.8c0.2,0.2,0.2,0.5,0,0.8c-0.2,0.2-0.5,0.2-0.8,0
			l-13.8-13.8C216.4,220.6,216.4,220.5,216.4,220.3z"/>
	</g>
</g>
</svg>
