<svg xmlns="http://www.w3.org/2000/svg" viewBox="0 0 50 49.9"><defs><style>.cls-1{fill:#323333;fill-rule:evenodd;}</style></defs><title>Asset 9</title><g id="Layer_2" data-name="Layer 2"><g id="Layer_1-2" data-name="Layer 1"><g id="plain"><path class="cls-1" d="M19.54,16.12a11,11,0,0,0-4.47,0c0,2.7,0,5.33,0,8a.53.53,0,0,0,.33.38,8.36,8.36,0,0,0,4.94-.52,4.17,4.17,0,0,0,2.24-4.4A3.74,3.74,0,0,0,19.54,16.12Z"/><path class="cls-1" d="M50,25V.91C50,.08,50,0,49.2,0H1C.2,0,0,.08,0,.87V49.09c0,.8.1.8.88.8,16.09,0,32.23,0,48.32,0,.63,0,.8-.16.79-.78C50,41.08,50,33,50,25ZM22,27.3a16.38,16.38,0,0,1-6.88.65v9H10.71v-.55c0-7.5,0-15-.05-22.49,0-.63.1-.93.8-1,3.3-.34,6.59-.72,9.88.05,3.53.83,5.57,3.17,5.73,6.4C27.26,23.3,25.5,26,22,27.3Zm17.59,5.06A4.9,4.9,0,0,1,36,36.88a11.77,11.77,0,0,1-8.42-.35c-.45-.18-.54-.41-.39-.87.27-.84.47-1.71.68-2.5a30.16,30.16,0,0,0,3.44,1,7.92,7.92,0,0,0,2.52-.07,1.61,1.61,0,0,0,1.4-1.42,1.79,1.79,0,0,0-.84-1.94,18.49,18.49,0,0,0-1.79-.87,27.55,27.55,0,0,1-2.89-1.4c-3.5-2.28-2.36-6.51,0-8.1a7.59,7.59,0,0,1,4.12-1.28,10.54,10.54,0,0,1,5.07,1c-.3,1.06-.58,2.07-.87,3.09a15.07,15.07,0,0,0-2-.69,9.24,9.24,0,0,0-2.46-.16,1.75,1.75,0,0,0-1.73,1.77,1.4,1.4,0,0,0,.68,1.29c.66.38,1.36.7,2,1s1.55.62,2.27,1A4.89,4.89,0,0,1,39.55,32.36Z"/></g></g></g></svg>