<svg xmlns="http://www.w3.org/2000/svg" viewBox="0 0 45.06 41.14"><defs><style>.cls-1{fill:#323333;}</style></defs><title>ReactAsset 6</title><g id="Layer_2" data-name="Layer 2"><g id="Layer_1-2" data-name="Layer 1"><path class="cls-1" d="M35.76,27.85c.12.52.24,1,.36,1.51a25.35,25.35,0,0,1,.49,3,16.61,16.61,0,0,1,.08,2.73,8.51,8.51,0,0,1-.88,3.57,4.38,4.38,0,0,1-3.16,2.42A6.1,6.1,0,0,1,30,40.91a13.1,13.1,0,0,1-4.05-2,25.8,25.8,0,0,1-3.17-2.64c-.08-.09-.18-.17-.27-.26l-.14.13a25,25,0,0,1-3.75,3.07,13,13,0,0,1-3.29,1.6,6.47,6.47,0,0,1-2.27.32A4.39,4.39,0,0,1,9.23,38.7a7.8,7.8,0,0,1-.85-2.79A13.41,13.41,0,0,1,8.3,33.3c.07-.85.16-1.69.31-2.53s.4-1.88.6-2.82c0,0,0-.08,0-.12-.56-.18-1.12-.35-1.67-.55A18.23,18.23,0,0,1,3.06,25,8.09,8.09,0,0,1,.71,22.61,4.59,4.59,0,0,1,0,19.93a5,5,0,0,1,1-2.68A9.57,9.57,0,0,1,3.7,14.91a21.08,21.08,0,0,1,5-2.21l.35-.11c0-.17-.07-.34-.11-.51A24.53,24.53,0,0,1,8.42,9a17,17,0,0,1-.09-2.94,8.58,8.58,0,0,1,.89-3.55A4.44,4.44,0,0,1,11.7.31,5,5,0,0,1,13.84.08,9.93,9.93,0,0,1,18.1,1.66a21.21,21.21,0,0,1,3.7,2.85l.68.63.82-.77A20.62,20.62,0,0,1,28.2.9,9,9,0,0,1,30.79.07a4.77,4.77,0,0,1,3.65.79A5,5,0,0,1,36,2.92a8.59,8.59,0,0,1,.62,2.44,16.15,16.15,0,0,1,0,3A25.08,25.08,0,0,1,36,12.44c0,.11,0,.15.1.18a23,23,0,0,1,4.05,1.59,12.4,12.4,0,0,1,3.3,2.35,5.93,5.93,0,0,1,1.44,2.34,4.41,4.41,0,0,1-.42,3.53,7.11,7.11,0,0,1-1.78,2.08A15.6,15.6,0,0,1,38.24,27c-.77.3-1.56.54-2.34.81Zm-12.92-.22,3.92-.19a.38.38,0,0,0,.3-.17,55.59,55.59,0,0,0,3.76-6.58.26.26,0,0,0,0-.27c-.64-1.2-1.26-2.42-1.92-3.61s-1.53-2.52-2.36-3.74a.31.31,0,0,0-.29-.17l-.42,0c-.95,0-1.91-.12-2.86-.11-1.34,0-2.68.07-4,.11a.66.66,0,0,0-.56.32,56.59,56.59,0,0,0-4.22,7.27.25.25,0,0,0,0,.25c.37.71.72,1.42,1.09,2.12A48.13,48.13,0,0,0,18,27.31a.23.23,0,0,0,.16.1c.52.05,1,.1,1.55.12Zm1.05,7,.71.67a19.72,19.72,0,0,0,2.93,2.31,10.25,10.25,0,0,0,3,1.42,4.06,4.06,0,0,0,1.66.13,2.51,2.51,0,0,0,1.95-1.56,6.8,6.8,0,0,0,.57-2.47,12.52,12.52,0,0,0-.1-2.87c-.12-.93-.31-1.85-.49-2.77-.07-.37-.18-.75-.28-1.12h-.11a41.89,41.89,0,0,1-5.34.89c-.12,0-.27,0-.37.13a8.19,8.19,0,0,1-.54.77c-.69.9-1.38,1.81-2.09,2.69C24.92,33.45,24.41,34,23.89,34.62ZM11.14,28.34c-.21,1-.44,2.05-.62,3.07a20.45,20.45,0,0,0-.22,2.07,11.27,11.27,0,0,0,.09,2.32A6,6,0,0,0,11,37.7,2.53,2.53,0,0,0,12.34,39a3.53,3.53,0,0,0,2.06,0,10.49,10.49,0,0,0,3.07-1.43A21.45,21.45,0,0,0,20.67,35l.42-.43L21,34.48c-.66-.77-1.34-1.53-2-2.32S17.67,30.32,17,29.4c0,0-.09-.1-.15-.11-.64-.08-1.28-.15-1.92-.25-.91-.14-1.82-.31-2.73-.48ZM21.08,6.53l-.38-.36A20.13,20.13,0,0,0,16.51,3a7.15,7.15,0,0,0-3-1A2.5,2.5,0,0,0,11,3.34a5.94,5.94,0,0,0-.68,2.37,13.33,13.33,0,0,0,0,2.68,21.1,21.1,0,0,0,.43,2.74c.07.31.15.62.22.94l.17,0c.49-.1,1-.23,1.48-.32l2.7-.45c.65-.09,1.31-.16,2-.22a.41.41,0,0,0,.29-.16c.39-.53.78-1.07,1.19-1.58C19.53,8.37,20.3,7.46,21.08,6.53ZM34,12v0a23.55,23.55,0,0,0,.65-3.72,12.37,12.37,0,0,0-.06-3A5.56,5.56,0,0,0,34,3.38a2.5,2.5,0,0,0-1.37-1.23,3.54,3.54,0,0,0-2,0,9.91,9.91,0,0,0-3,1.35,20.76,20.76,0,0,0-3,2.3l-.84.8.1.12c.41.45.83.9,1.21,1.38.75.93,1.48,1.88,2.22,2.83a.3.3,0,0,0,.17.1c.76.09,1.52.16,2.27.27s1.68.27,2.51.42C32.91,11.8,33.45,11.93,34,12Zm1.43,2.45,0,0a45,45,0,0,1-2.28,5.95.36.36,0,0,0,0,.23c.26.61.55,1.2.79,1.82.42,1.08.81,2.18,1.21,3.27,0,.08,0,.14.17.11a20,20,0,0,0,5.13-2.22,7.36,7.36,0,0,0,2.07-1.86,2.58,2.58,0,0,0,.16-3.06,6.29,6.29,0,0,0-1.87-1.87,16.94,16.94,0,0,0-4-2ZM9.8,25.93c0-.05,0-.09,0-.14a48,48,0,0,1,2-5.13.25.25,0,0,0,0-.24,47.4,47.4,0,0,1-1.93-4.87L9.61,14.5,9,14.7A18.46,18.46,0,0,0,4.7,16.63a7.67,7.67,0,0,0-2.08,1.81,2.68,2.68,0,0,0-.09,3.36A6.55,6.55,0,0,0,4.3,23.47,19,19,0,0,0,9.8,25.93Zm12.68,7.23a44.82,44.82,0,0,0,3-3.66,50.54,50.54,0,0,1-6,0A44.5,44.5,0,0,0,22.48,33.16Zm9.45-14.94A42.28,42.28,0,0,0,33.48,14a43.14,43.14,0,0,0-4.54-.82,53.25,53.25,0,0,1,2.95,5Zm-16-5h-.06c-.26,0-.52.05-.77.1-1.16.21-2.31.44-3.47.66-.14,0-.16.06-.11.19.33,1,.66,1.92,1,2.87.14.41.32.8.48,1.21.48-.86.94-1.71,1.42-2.54S15.46,14,16,13.2Zm16,9.72-2.42,4.23,3.76-.68ZM11.72,26.43c1.26.29,2.48.52,3.71.68L13,22.92ZM24.9,10.81,22.53,8c-.85.93-1.63,1.86-2.38,2.84Z"/><path class="cls-1" d="M27.43,20.59a4.9,4.9,0,1,1-4.76-4.9A4.91,4.91,0,0,1,27.43,20.59Z"/></g></g></svg>