<svg xmlns="http://www.w3.org/2000/svg" viewBox="0 0 37.96 37.78"><defs><style>.cls-1{fill:#323333;}</style></defs><title>Asset 1</title><g id="Layer_2" data-name="Layer 2"><g id="Layer_1-2" data-name="Layer 1"><path class="cls-1" d="M3.77,24.25c-.31-.74-.62-1.46-.92-2.19C2.24,20.62,1.64,19.17,1,17.73a.47.47,0,0,1,0-.5l4-6.86A1.22,1.22,0,0,1,5.33,10l7.34-6.83a1.61,1.61,0,0,1,.5-.31L19.28.65a.34.34,0,0,1,.35,0l5.1,3.56a.25.25,0,0,1,.11.32c-.87,2.74-1.73,5.48-2.6,8.22a.64.64,0,0,1-.19.3q-4.93,4.61-9.88,9.18a.54.54,0,0,1-.25.15l-8,1.8Z"/><path class="cls-1" d="M26,29.2c-.56.48-1.07.93-1.6,1.37a38.21,38.21,0,0,1-5.31,3.79,26,26,0,0,1-9.11,3.29H9.8l-.07,0,3.37-13.4Z"/><path class="cls-1" d="M28.22,27,24.06,14.25,36.72,14A39.24,39.24,0,0,1,28.22,27Z"/><path class="cls-1" d="M14,22.82l8.52-7.91,4.19,12.82Z"/><path class="cls-1" d="M37.31,17,35.94,34.9A24.16,24.16,0,0,0,34,33.15l-4.93-4.38L29,28.62A45.16,45.16,0,0,0,37.25,17Z"/><path class="cls-1" d="M27.31,4.12l1-.58L33.29.79a.38.38,0,0,1,.4,0A6.75,6.75,0,0,1,37.9,6.63a14.44,14.44,0,0,1-.43,4.77l0,.06Z"/><path class="cls-1" d="M17.07,37.29a40.86,40.86,0,0,0,10.68-7.52l.82.72,5.9,5.24a5.19,5.19,0,0,0,.49.34Z"/><path class="cls-1" d="M35.73,12.34,24,12.6,26.3,5.42l9.45,6.87Z"/><path class="cls-1" d="M11.4,24.24,8.25,36.77H8.2l-3.83-11Z"/><path class="cls-1" d="M3.11,27.23,6.8,37.78c-.29,0-.54-.07-.79-.12a6.79,6.79,0,0,1-4.34-2.47,7.34,7.34,0,0,1-1.37-3,.41.41,0,0,1,0-.22L3,27.32S3.07,27.27,3.11,27.23Z"/><path class="cls-1" d="M21.56,0h9.72l-.21.13L26,3a.3.3,0,0,1-.26,0Q23.67,1.53,21.62.08A.5.5,0,0,0,21.56,0Z"/><path class="cls-1" d="M0,29.17V19.66l0,0,.09.18C.85,21.55,1.58,23.29,2.3,25a.36.36,0,0,1,0,.25Q1.19,27.19.07,29.11Z"/></g></g></svg>