<svg xmlns="http://www.w3.org/2000/svg" viewBox="0 0 34 32.47"><defs><style>.cls-1{fill:#323333;}</style></defs><title>Asset 8</title><g id="Layer_2" data-name="Layer 2"><g id="Layer_1-2" data-name="Layer 1"><path class="cls-1" d="M34,8.07a10.94,10.94,0,0,0-.22-2.14,7.6,7.6,0,0,0-.72-2.07,7.78,7.78,0,0,0-1.3-1.72A6.21,6.21,0,0,0,30,.9,7,7,0,0,0,27.86.21C27.14.07,26.34.07,25.62,0H7.79A13.12,13.12,0,0,0,6.13.14,5.82,5.82,0,0,0,4.54.55L4,.76a9.42,9.42,0,0,0-1.36.9c-.14.13-.29.2-.43.34A6.24,6.24,0,0,0,.94,3.72,6.46,6.46,0,0,0,.22,5.79C.11,6.5,0,7.21,0,7.93V24.4a10.3,10.3,0,0,0,.22,2.14A7.53,7.53,0,0,0,.94,28.6a7.62,7.62,0,0,0,1.3,1.73A6.42,6.42,0,0,0,4,31.57a7.73,7.73,0,0,0,2.1.69c.72.14,1.51.14,2.24.21H25.62a12.05,12.05,0,0,0,2.24-.21,7.73,7.73,0,0,0,2.1-.69,8.24,8.24,0,0,0,1.8-1.24,6.15,6.15,0,0,0,1.3-1.73,6.32,6.32,0,0,0,.72-2.06c.11-.71.18-1.42.22-2.14V8.07ZM28.66,26.54c-1.57-2.94-4.47-2-5.94-1.44-3,1.67-7.19,1.84-11.39.13a17.7,17.7,0,0,1-8-6.54,13.69,13.69,0,0,0,3,1.72c4.33,1.94,8.66,1.81,11.7,0A60.83,60.83,0,0,1,7.21,9.72,11.28,11.28,0,0,1,5.77,7.86a82.08,82.08,0,0,0,10.47,7.58A74.72,74.72,0,0,1,8.87,6.62,72.85,72.85,0,0,0,21,16.13a4.3,4.3,0,0,1,.47.27c.12-.31.23-.63.33-.95,1-3.52-.15-7.52-2.68-10.83C25,8,28.45,14.34,27,19.65a3.86,3.86,0,0,1-.12.42l.05.06C29.81,23.57,29,27.22,28.66,26.54Z"/></g></g></svg>