<svg xmlns="http://www.w3.org/2000/svg" viewBox="0 0 50 41.69"><defs><style>.cls-1{fill:#1b34f9;}</style></defs><title>Asset 8</title><g id="Layer_2" data-name="Layer 2"><g id="Layer_1-2" data-name="Layer 1"><path class="cls-1" d="M48.73,1.4c-.32,2.11-2,3.31-3.39,4.86,1.79.36,3.11-1,4.66-.72l0,0a10.23,10.23,0,0,1-3.23,3.67,3.37,3.37,0,0,0-1.39,2.95c-.16,22.74-25,36.93-44.66,25.57C.52,37.61.4,37.41,0,37.1c2.75-.12,5.26,0,7.65-.8a20.87,20.87,0,0,0,7-3.59c-4.54-.71-7.73-2.83-9.48-7.17,1.43-.08,2.63-.12,3.86-.2A15,15,0,0,1,3.39,21a13.71,13.71,0,0,1-1-1.79c-.6-1.24-1.39-2.75-.72-3.87.44-.71,1.92.52,3,.56H5.74C1.47,11.92.32,7.49,2.75,2.2L5.26,4.59a30.06,30.06,0,0,0,17.81,8.32c1.15.16,1.39-.2,1.31-1.31-.32-4.66,1.56-8.25,5.74-10.36A9.9,9.9,0,0,1,41.67,2.67,2.54,2.54,0,0,0,44.14,3c1.6-.32,3-1.47,4.62-1.55Z"/></g></g></svg>